<?xml version="1.0" standalone="no"?>
<!DOCTYPE svg PUBLIC "-//W3C//DTD SVG 20010904//EN"
 "http://www.w3.org/TR/2001/REC-SVG-20010904/DTD/svg10.dtd">
<svg version="1.0" xmlns="http://www.w3.org/2000/svg"
 width="839.000000pt" height="670.000000pt" viewBox="0 0 839.000000 670.000000"
 preserveAspectRatio="xMidYMid meet">
<metadata>
Created by potrace 1.16, written by Peter Selinger 2001-2019
</metadata>
<g transform="translate(0.000000,670.000000) scale(0.100000,-0.100000)"
fill="#000000" stroke="none">
<path d="M2340 6191 c-96 -31 -179 -106 -221 -198 -24 -52 -29 -76 -29 -141 0
-78 1 -82 65 -209 90 -180 115 -284 96 -403 l-11 -64 -103 -101 c-123 -120
-272 -297 -354 -420 -63 -94 -169 -285 -193 -345 -29 -73 -37 -80 -97 -80 -63
0 -160 -23 -215 -51 -60 -31 -162 -133 -195 -196 -17 -32 -36 -82 -42 -111
-15 -71 -15 -777 0 -858 24 -133 116 -252 244 -316 49 -24 78 -31 155 -36 108
-8 89 11 167 -162 80 -177 206 -377 334 -532 34 -40 134 -145 223 -233 174
-170 219 -232 272 -370 24 -64 27 -87 34 -270 7 -193 8 -202 37 -265 35 -76
90 -130 172 -169 l56 -26 520 0 520 0 65 32 c73 35 94 52 131 103 30 40 69
139 69 174 0 22 4 23 92 30 50 3 124 6 164 6 l72 0 7 -42 c21 -128 85 -217
193 -270 l66 -33 178 -3 178 -4 0 191 0 190 -122 3 -123 3 2 192 3 193 -35 0
c-19 0 -105 -10 -192 -21 -198 -27 -522 -29 -717 -5 -70 9 -132 13 -137 10 -5
-3 -9 -88 -9 -190 l0 -184 -400 0 -400 0 0 93 c0 321 -124 617 -339 812 -349
316 -543 595 -646 932 -20 65 -41 130 -47 146 l-10 27 -180 0 -179 0 -24 26
-25 27 0 364 0 364 25 24 c24 25 26 25 205 25 145 0 180 3 180 14 0 7 9 35 19
62 11 27 31 83 46 124 56 159 188 394 292 520 115 140 221 247 383 388 31 27
35 37 42 98 5 38 11 135 14 216 8 192 -13 290 -100 482 -15 32 -26 60 -24 61
2 2 23 -1 48 -7 104 -24 211 -63 295 -106 75 -39 107 -64 191 -149 56 -57 104
-103 107 -103 4 0 285 186 296 196 9 9 -66 108 -132 173 -169 167 -352 272
-587 337 -107 29 -157 38 -240 40 -58 2 -116 0 -130 -5z"/>
<path d="M3848 5857 l-128 -9 0 -38 c0 -46 30 -333 35 -338 5 -5 364 26 374
32 3 2 1 75 -6 163 -6 87 -12 168 -12 181 -1 21 -5 22 -68 20 -38 0 -125 -6
-195 -11z"/>
<path d="M4456 5823 c-24 -147 -46 -318 -42 -330 3 -7 20 -13 38 -13 18 0 65
-7 103 -16 79 -17 238 -44 241 -41 4 4 32 150 49 256 18 111 16 120 -30 121
-11 0 -90 14 -175 30 -85 16 -160 30 -166 30 -6 0 -14 -17 -18 -37z"/>
<path d="M5126 5520 c-38 -94 -67 -172 -65 -173 8 -5 260 -119 304 -137 50
-21 52 -20 74 28 28 66 80 183 90 207 5 11 14 32 21 47 7 14 11 31 9 37 -4 11
-334 161 -354 161 -5 0 -41 -77 -79 -170z"/>
<path d="M5857 5328 c-3 -7 -50 -69 -106 -138 -55 -69 -101 -129 -101 -135 0
-5 29 -31 64 -58 36 -26 87 -68 115 -93 100 -91 116 -104 127 -101 11 2 233
266 234 277 0 3 -39 37 -86 75 -48 39 -117 96 -153 127 -68 59 -85 67 -94 46z"/>
<path d="M6275 4724 c-77 -51 -141 -97 -143 -102 -1 -5 28 -51 65 -103 38 -52
88 -125 112 -162 28 -43 49 -66 58 -63 39 16 292 183 293 194 0 25 -212 332
-229 331 -9 -1 -79 -44 -156 -95z"/>
<path d="M6628 4107 c-191 -47 -182 -39 -149 -143 11 -32 32 -107 47 -166 23
-90 30 -108 46 -108 11 0 63 11 116 24 53 13 123 30 155 36 32 6 61 18 63 25
3 7 -11 73 -30 146 -51 193 -60 222 -71 225 -6 1 -85 -16 -177 -39z"/>
<path d="M6379 3415 c-245 -49 -476 -234 -587 -470 -55 -117 -65 -176 -71
-415 -5 -169 -9 -225 -18 -226 -7 -1 -87 -2 -178 -3 l-165 -1 2 -827 3 -828
1180 3 1180 4 3 824 c2 656 0 824 -10 825 -7 0 -87 1 -178 2 l-165 2 -6 195
c-4 107 -12 224 -18 259 -52 273 -247 514 -501 617 -129 52 -324 68 -471 39z
m283 -381 c144 -34 274 -175 307 -332 6 -29 11 -129 11 -222 l0 -169 -32 -6
c-18 -3 -215 -4 -438 -3 l-405 3 -3 170 c-4 251 16 326 117 437 59 65 152 117
236 134 66 13 119 10 207 -12z m676 -1117 c7 -8 11 -164 12 -460 l1 -447 -810
0 c-445 0 -811 3 -813 8 -2 4 -2 211 0 460 l3 452 798 0 c631 0 801 -3 809
-13z"/>
</g>
</svg>
